<svg xmlns="http://www.w3.org/2000/svg" width="70" height="50" viewBox="0 0 70 50" fill="none"><path fill-rule="evenodd" clip-rule="evenodd" d="M13.3975 10C17.7586 10 21.291 13.4538 21.291 17.7113C21.291 21.9688 17.7583 25.4226 13.3975 25.4226C9.03903 25.4226 5.50391 21.9688 5.50391 17.7113C5.50391 13.4538 9.03931 10 13.3975 10ZM56.6023 10C60.9635 10 64.4959 13.4538 64.4959 17.7113C64.4959 21.9688 60.9632 25.4226 56.6023 25.4226C52.2439 25.4226 48.7088 21.9688 48.7088 17.7113C48.7088 13.4538 52.2442 10 56.6023 10ZM44.6258 20.0059C44.6258 14.8105 40.3165 10.6008 34.9984 10.6008C29.6802 10.6008 25.371 14.8132 25.371 20.0059C25.371 25.2013 29.683 29.411 34.9984 29.411C40.3166 29.411 44.6258 25.1986 44.6258 20.0059ZM51.3349 43.5546C48.7072 36.233 42.383 31.0724 35.0004 31.0724C27.6179 31.0724 21.2963 36.2331 18.666 43.5546C22.8931 47.5453 28.6517 50 35.0004 50C41.3492 50 47.105 47.5452 51.3349 43.5546ZM70.0004 37.0185C67.8431 31.0164 62.6587 26.7854 56.6051 26.7854L56.6049 26.7853C52.5007 26.7853 48.793 28.7325 46.16 31.8577C49.6492 34.3796 52.3534 38.0096 53.931 42.1231C54.806 42.2433 55.6973 42.3047 56.6051 42.3047C61.8115 42.3047 66.5334 40.2907 70.0004 37.0185ZM23.8432 31.8604C21.2099 28.7325 17.5051 26.7853 13.3982 26.7853L13.3953 26.788C7.34127 26.788 2.1573 31.0192 0 37.0212C3.46695 40.2933 8.18928 42.3073 13.3953 42.3073C14.3031 42.3073 15.1972 42.2459 16.0721 42.1257C17.6501 38.012 20.3543 34.3819 23.8432 31.8604Z" fill="#691808"></path></svg>