<svg xmlns="http://www.w3.org/2000/svg" width="70" height="48" viewBox="0 0 70 48" fill="none"><path fill-rule="evenodd" clip-rule="evenodd" d="M1.42255 2H68.5774C69.3597 2 70 2.6373 70 3.42255V46.0883C70 46.8706 69.3597 47.5109 68.5774 47.5109H1.42255C0.640296 47.5109 0 46.8706 0 46.0883V3.42255C0 2.63728 0.637296 2 1.42255 2ZM14.1651 7.88065C13.41 7.88065 12.7878 8.4666 12.7455 9.22171C12.5734 12.1938 10.1933 14.5768 7.22132 14.7459C6.46624 14.7882 5.88027 15.4104 5.88027 16.1655V33.3454C5.88027 34.1005 6.46621 34.7227 7.22132 34.765C10.1934 34.9371 12.5764 37.3172 12.7455 40.2892C12.7878 41.0442 13.41 41.6302 14.1651 41.6302H55.8311C56.5862 41.6302 57.2083 41.0443 57.2506 40.2892C57.4228 37.3171 59.8028 34.9341 62.7748 34.765C63.5299 34.7227 64.1159 34.1005 64.1159 33.3454V16.1655C64.1159 15.4104 63.5299 14.7882 62.7748 14.7459C59.8027 14.5738 57.4197 12.1937 57.2506 9.22171C57.2083 8.46662 56.5861 7.88065 55.8311 7.88065H14.1651ZM34.9992 12.5743C28.2729 12.5743 22.8181 18.029 22.8181 24.7554C22.8181 31.4818 28.2728 36.9366 34.9992 36.9366C41.7256 36.9366 47.1804 31.4818 47.1804 24.7554C47.1804 18.029 41.7256 12.5743 34.9992 12.5743ZM38.0257 19.2643C37.6179 18.8989 37.1377 18.6089 36.6152 18.4156C36.5427 18.3884 36.4672 18.3642 36.3947 18.3401L36.3856 17.8991C36.3675 17.1168 35.7181 16.4977 34.9358 16.5157C34.1536 16.5338 33.5344 17.1832 33.5525 17.9655L33.5616 18.3582C32.9665 18.5545 32.4259 18.8656 31.9789 19.2643C31.1543 20.0012 30.6438 21.0312 30.6438 22.1789H30.6378C30.6378 23.3236 31.1513 24.3536 31.9758 25.0935C32.7611 25.7973 33.8333 26.2292 35.0023 26.2292C35.4583 26.2292 35.8601 26.3832 36.138 26.6309C36.3735 26.8423 36.5215 27.1263 36.5215 27.4313C36.5215 27.7364 36.3735 28.0203 36.138 28.2318C35.8601 28.4794 35.4584 28.6335 35.0023 28.6335C34.6851 28.6335 34.4586 28.5821 34.2774 28.4915C34.0478 28.3767 33.8032 28.1653 33.5132 27.8935C32.9424 27.3559 32.0454 27.383 31.5077 27.9539C30.97 28.5247 30.9972 29.4218 31.5681 29.9595C32.0332 30.3974 32.4652 30.7538 32.9998 31.0256C33.1961 31.1253 33.4015 31.2099 33.6129 31.2763L33.622 31.6116C33.6401 32.3938 34.2894 33.013 35.0717 32.9949C35.854 32.9768 36.4732 32.3274 36.4551 31.5452L36.449 31.2492C37.044 31.0528 37.5816 30.7417 38.0287 30.343C38.8563 29.6031 39.3667 28.5731 39.3667 27.4284C39.3667 26.2838 38.8533 25.2538 38.0287 24.5138C37.2434 23.8101 36.1712 23.3781 35.0053 23.3781C34.5492 23.3781 34.1475 23.2241 33.8696 22.9764C33.634 22.765 33.486 22.4811 33.486 22.176H33.48C33.48 21.8739 33.628 21.59 33.8696 21.3756C34.1475 21.1279 34.5492 20.9738 35.0053 20.9738C35.2349 20.9738 35.4493 21.0131 35.6396 21.0856C35.8359 21.1581 36.005 21.2578 36.1379 21.3786C36.7209 21.9011 37.6179 21.8498 38.1374 21.2668C38.6569 20.6809 38.6086 19.7838 38.0257 19.2643Z" fill="#691808"></path></svg>